<svg viewBox="0 0 18 18" xmlns="http://www.w3.org/2000/svg"><symbol viewBox="0 0 148.8 55.3" id="Elekta-logo"><title>Elekta-logo</title><g fill="#6D6E71"><path d="M77.4 18.7v1.8h-6.8v6.4H77v1.6h-6.3v7.1h6.9v1.8h-9.8V18.7h9.6zm4.2 0v18.6h9.5v-1.8h-6.6V18.7h-2.9zm12.6 0v18.6h9.8v-1.8h-6.9v-7.1h6.3v-1.6h-6.3v-6.4h6.8v-1.8h-9.7zm13.6 0v18.6h2.9v-9.4l6.7 9.4h3.6l-7.8-10.5 7.4-8.2h-2.4l-7.5 8.6v-8.6h-2.9zm14.1 0v1.6h5v17h2.9v-17h5v-1.6h-12.9zm16.8 10.9h4.5l-2.2-7.1-2.3 7.1zm3.7-10.9l6.4 18.6h-3.1l-2-6.2h-5.5l-2 6.2h-2l6.3-18.6h1.9zM24.9.1c7.6-.7 14.9 1.6 20.7 6.6l-1.1 1C39 3 32.2.9 25.1 1.6 10.7 2.9.1 15.7 1.5 30.1c.7 7 4 13.3 9.4 17.7 5.4 4.5 12.2 6.6 19.2 5.9 7-.7 13.3-4 17.7-9.4 4.5-5.4 6.6-12.2 5.9-19.2-.3-3.6-1.2-6.8-3-10l1.1-.9c1.8 3.3 3 7 3.3 10.8.7 7.4-1.5 14.5-6.2 20.2-4.7 5.7-11.4 9.2-18.7 9.9-7.4.7-14.5-1.5-20.2-6.2C4.2 44.3.7 37.6 0 30.3-1.4 15.1 9.7 1.6 24.9.1M33 25.3c.7-.5.8-1.5.3-2.2-.5-.7-1.5-.8-2.2-.3-.7.5-.8 1.5-.3 2.2.5.7 1.5.9 2.2.3m5-3.7c.8-.6.9-1.6.3-2.4-.6-.8-1.6-.9-2.4-.3-.7.6-.9 1.7-.3 2.4.5.7 1.6.9 2.4.3m5.4-4.1c.8-.6 1-1.8.4-2.6s-1.8-1-2.6-.4-1 1.8-.4 2.6c.6.9 1.8 1.1 2.6.4m5.8-4.3c.9-.7 1.1-2 .4-2.9-.7-.9-2-1.1-2.9-.4-.9.7-1.1 2-.4 2.9.6 1 1.9 1.1 2.9.4m-21.7 13c-.8 0-1.4.6-1.4 1.4 0 .8.6 1.4 1.4 1.4.8 0 1.4-.6 1.4-1.4 0-.7-.6-1.4-1.4-1.4z"/></g></symbol><symbol viewBox="0 0 20 20" id="alerts"><title>alerts</title><path d="M16.1 13.7c-1.2-2-.5-3.1-1-6.8-.4-3.3-3.1-4.3-4.4-4.5V0H9.3v2.4c-1.4.3-4 1.2-4.4 4.5-.5 3.7.2 4.8-1 6.8-.3.5-.7 1-1.1 1.3v.8h14.4V15c-.4-.3-.8-.7-1.1-1.3zm0 0M11.6 18.4c0 .9-.7 1.6-1.6 1.6-.9 0-1.6-.7-1.6-1.6 0-.9.7-1.6 1.6-1.6.9 0 1.6.7 1.6 1.6zm0 0"/></symbol><symbol viewBox="0 0 20 20" id="allergies"><title>allergies</title><path d="M19.9 17.8L10.3 1.4c-.1-.1-.2-.2-.3-.2-.1 0-.3.1-.3.2L.1 17.8c-.1.1-.1.3 0 .4.1.1.2.2.3.2h19.1c.1 0 .3-.1.3-.2s0-.1 0-.2c.1-.1.1-.1.1-.2zM11.3 7l-.3 6.6H9.3L9 7h2.3zm-1.1 9.9c-.8 0-1.3-.6-1.3-1.3 0-.8.5-1.3 1.3-1.3s1.3.5 1.3 1.3c0 .7-.6 1.3-1.3 1.3zm0 0"/></symbol><symbol viewBox="0 0 20 20" id="appointments"><title>appointments</title><path d="M2.5 3.1V.6c0-.3.3-.6.6-.6s.6.3.6.6v2.5c0 .3-.3.6-.6.6-.3.1-.6-.2-.6-.6zm10.6.7c.3 0 .6-.3.6-.6V.6c0-.3-.3-.6-.6-.6s-.6.3-.6.6v2.5c0 .4.3.7.6.7zM20 15c0 2.8-2.2 5-5 5s-5-2.2-5-5 2.2-5 5-5 5 2.2 5 5zm-1.2 0c0-2.1-1.7-3.7-3.8-3.7-2.1 0-3.8 1.7-3.8 3.7 0 2.1 1.7 3.7 3.8 3.7 2.1.1 3.8-1.6 3.8-3.7zM5 7.5H2.5V10H5V7.5zm-2.5 6.3H5v-2.5H2.5v2.5zM6.3 10h2.5V7.5H6.3V10zm0 3.8h2.5v-2.5H6.3v2.5zm-5 1.1V6.3H15v2.5h1.3V3.9c0-.8-.6-1.4-1.4-1.4h-.5v.6c0 .7-.6 1.2-1.3 1.2-.7 0-1.3-.6-1.3-1.2v-.6H4.4v.6c0 .7-.6 1.2-1.3 1.2s-1.2-.5-1.2-1.2v-.6h-.5C.6 2.5 0 3.1 0 3.9v11c0 .8.6 1.4 1.4 1.4h7.4V15H1.4c-.1 0-.1-.1-.1-.1zM12.5 10V7.5H10V10h2.5zm4.4 5H15v-1.9c0-.3-.3-.6-.6-.6s-.6.3-.6.6v2.5c0 .3.3.6.6.6h2.5c.3 0 .6-.3.6-.6s-.3-.6-.6-.6zm0 0"/></symbol><symbol viewBox="0 0 20 20" id="clinical trial"><title>clinical trial</title><path d="M5.5 11.2c-.2.3-.1.7.2 1l.9.7c.3.2.8.2 1-.1l.5-.6.7.6c.2.1.4.2.6.1.2 0 .4-.1.5-.3l1.4-1.7c-.4-.3-.8-.8-1-1.3-.2-.2-.3-.7-.3-1.1 0-1.7 1.4-3.1 3.1-3.1.4 0 .7.1 1 .2.4.2.8.4 1.2.7l1.8-2.1c.3-.3.2-.8-.1-1.1l-.4-.3.2-.2c.2-.2.3-.4.3-.6s-.1-.4-.3-.5L15.2.2c-.1-.2-.3-.2-.5-.2s-.4.1-.5.3l-.2.2-.4-.3c-.3-.3-.8-.2-1.1.1L5.3 8.9c-.2.3-.2.7 0 1l.6.6-.4.7zM16.2 9.2c-.1.8-.6 1.4-1.2 1.8.9 1.1 1.7 2.6 1.7 4.7v2.1H6.2v-.1l3.5-1.3v-.6c0-.4-.3-.8-.8-.8H1.7c-.4 0-.8.3-.8.8v.6L4 17.6v.9c0 .8.7 1.5 1.5 1.5h11.8c.8 0 1.5-.7 1.5-1.5v-2.7c0-3-1.3-5.2-2.6-6.6zM13.2 6c-1.3 0-2.4 1.1-2.4 2.4s1.1 2.4 2.4 2.4 2.4-1.1 2.4-2.4c0-1.3-1.1-2.4-2.4-2.4z"/></symbol><symbol viewBox="0 0 20 20" id="configuration"><title>configuration</title><path d="M17.4 7.5l-.5-.9v-.1c1.1-2.6 1-2.7.9-2.9l-1.5-1.5c-.1 0-.2-.1-.3-.1-.1 0-.3 0-2.6 1h-.1l-.9-.4v-.1C11.4 0 11.3 0 11 0H8.9c-.2 0-.3 0-1.3 2.6v.1l-1 .4h-.1c-1.5-.6-2.4-1-2.6-1-.1 0-.2 0-.3.1L2.2 3.7c-.2.2-.3.3.9 2.8v.1l-.3.9h-.1C.1 8.6.1 8.7.1 9v2.1c0 .3 0 .4 2.6 1.4h.1l.4.9v.1c-1.1 2.6-1.1 2.7-.9 2.9l1.5 1.5s.1.1.2.1.3 0 2.6-1h.1l.9.4v.1C8.7 20 8.8 20 9 20h2.1c.3 0 .4 0 1.3-2.6v-.1l.9-.4h.1c1.5.6 2.4 1 2.6 1 .1 0 .2 0 .3-.1l1.5-1.5c.2-.2.3-.3-.9-2.8v-.1l.4-.9h.1c2.6-1 2.6-1.2 2.6-1.4V8.9c0-.3 0-.4-2.6-1.4zM10 13.4c-1.9 0-3.4-1.5-3.4-3.4S8.1 6.6 10 6.6s3.4 1.5 3.4 3.4c.1 1.9-1.5 3.4-3.4 3.4zm0 0"/></symbol><symbol viewBox="0 0 20 20" id="contact"><title>contact</title><path d="M12.1 10.1c-.5.6-1 1.1-1 1 0 0-.4.5-1 1.1-.5.4-1 .9-1.5 1.3-.6.5-1.6.5-2.1.2s-1.6-1-2.4-.8c-.7.1-1.5.6-2.6 1.9-2.5 2.9-.3 3.8 1.3 5C4.4 20.9 9.4 18 14 13.3s6.4-9.6 5.1-11.1C17.8.8 16.7-1.4 14 1.3c-1.2 1.1-1.6 2-1.7 2.7-.1.8.6 1.8 1 2.3.4.5.4 1.5-.1 2.2-.2.6-.6 1.1-1.1 1.6zm0 0"/></symbol><symbol viewBox="0 0 20 20" id="deceased"><title>deceased</title><path d="M14.7 4.4c-.6-1.7-1.3-3.2-1.3-3.2s.2.7-1 2.4C10.7 6 10.8 5.8 1.2 17.1L3.7 20s8-9.8 10.7-13.1c.3-.6.8-1.1.3-2.5zM14.7 4.4M12.6.5C11.4 0 9.2-.2 7.7.5c0 0-1 .5.3 2.2 0 0 1.1-.3 2.2-.3 1.2 0 2.2.3 2.2.3 1.1-1.8.2-2.2.2-2.2zm0 0M12.9 9.9c-.7.9-1.5 1.8-2.3 2.8 2.9 3.6 5.9 7.2 5.9 7.2L19 17c-2.7-3.1-4.7-5.4-6.1-7.1zm0 0M7.3 8.6c1-1.2 1.7-2 2.3-2.7-.8-.8-1.2-1.4-1.8-2.3-1.2-1.7-1-2.4-1-2.4s-.7 1.6-1.3 3.2c-.5 1.4 0 1.9.4 2.4s.9 1.1 1.4 1.8zm0 0"/></symbol><symbol viewBox="0 0 20 20" id="female"><title>female</title><path d="M16.8 6.8c0-3.7-3-6.8-6.8-6.8-3.7 0-6.8 3-6.8 6.8 0 3.2 2.3 6 5.3 6.6V15H7.1c-.7 0-1.3.6-1.3 1.3 0 .7.6 1.3 1.3 1.3h1.5v1c0 .7.6 1.3 1.3 1.3.7 0 1.3-.6 1.3-1.3v-1h1.6c.7 0 1.3-.6 1.3-1.3 0-.7-.6-1.3-1.3-1.3h-1.6v-1.5c3.2-.6 5.6-3.4 5.6-6.7zm-10.9 0c0-2.3 1.9-4.1 4.1-4.1 2.3 0 4.1 1.9 4.1 4.1 0 2.3-1.9 4.1-4.1 4.1-2.3 0-4.1-1.8-4.1-4.1zm0 0"/></symbol><symbol viewBox="0 0 20 20" id="hamburger"><title>hamburger</title><path d="M0 3.1c0-.9.7-1.6 1.6-1.6h16.8c.9 0 1.6.7 1.6 1.6 0 .9-.7 1.6-1.6 1.6H1.6C.7 4.7 0 4 0 3.1zm18.4 5.3H1.6C.7 8.4 0 9.1 0 10c0 .9.7 1.6 1.6 1.6h16.8c.9 0 1.6-.7 1.6-1.6 0-.9-.7-1.6-1.6-1.6zm0 6.9H1.6c-.9 0-1.6.7-1.6 1.6 0 .9.7 1.6 1.6 1.6h16.8c.9 0 1.6-.7 1.6-1.6 0-.9-.7-1.6-1.6-1.6zm0 0"/></symbol><symbol viewBox="0 0 20 20" id="home"><title>home</title><path d="M19.8 9.1c-.2.4-.5.5-.9.5-.2 0-.4-.1-.5-.2l-8.4-6-8.4 6c-.5.4-1.1.3-1.4-.3-.3-.5-.2-1.3.3-1.6l8.9-6.4c.3-.2.7-.2 1.1 0l8.9 6.4c.6.4.7 1.1.4 1.6zm-3.2.6l-6-4.3c-.3-.2-.7-.2-1.1 0l-6 4.3c-.3.3-.5.6-.5 1v7.2c0 .6.5 1.2 1 1.2h3.3c.6 0 1-.5 1-1.2v-3.3c0-1.1.8-1.9 1.7-1.9.9 0 1.7.9 1.7 1.9v3.3c0 .6.5 1.2 1 1.2H16c.6 0 1-.5 1-1.2v-7.2c.1-.4-.1-.7-.4-1zm0 0"/></symbol><symbol viewBox="0 0 20 20" id="information"><title>information</title><path d="M10 5c-.7 0-1.3.6-1.3 1.3 0 .7.6 1.2 1.3 1.2s1.2-.6 1.2-1.3c0-.6-.5-1.2-1.2-1.2zm0 3.8c-.7 0-1.3.6-1.3 1.3v3.7c0 .7.6 1.2 1.3 1.2s1.2-.6 1.2-1.2V10c0-.7-.5-1.2-1.2-1.2zM10 0C4.5 0 0 4.5 0 10s4.5 10 10 10 10-4.5 10-10S15.5 0 10 0zm0 18.1c-4.5 0-8.1-3.6-8.1-8.1S5.5 1.9 10 1.9s8.1 3.6 8.1 8.1-3.6 8.1-8.1 8.1zm0 0"/></symbol><symbol viewBox="0 0 20 20" id="male"><title>male</title><path d="M17 2.1c-.1 0-4.2 0-4.2 0-.7 0-1.3.7-1.3 1.5S12.2 5 12.8 5l.8-.2-1.4 1.4C11 5.4 9.7 4.9 8.3 4.9c-1.8 0-3.6.7-4.8 2-2.6 2.6-2.6 7 0 9.7 1.3 1.3 2.9 2 4.8 2 1.8 0 3.6-.7 4.7-2 2.3-2.4 2.6-5.9.9-8.6l1.6-1.5v.8c0 .7.6 1.4 1.3 1.4.8.1 1.5-.5 1.5-1.3v-4c.1-.5.1-1.3-1.3-1.3zm-5.7 12.7c-.8.8-1.7 1.2-2.9 1.2s-2.2-.4-2.9-1.3c-1.6-1.7-1.6-4.3 0-5.9.8-.8 1.8-1.3 2.9-1.3s2.2.4 2.9 1.3c1.7 1.7 1.7 4.3 0 6z"/></symbol><symbol viewBox="0 0 20 20" id="notifications"><title>notifications</title><path d="M18.3 1.5c-.3 0-.5.2-.6.4-1.3.6-4.2 2.2-6.4 3-4 1.6-7.6 2-7.6 2v5.8s1.2.2 3 .5v5.4c0 .4.4.8.8.8h1.3c.4 0 .8-.4.8-.8V14c.5.2 1.2.4 1.7.6 2.2.8 5.1 2.3 6.4 3 .1.3.4.4.6.4.4 0 .7-.4.7-.8v-15c0-.3-.2-.7-.7-.7zM1 7h2.2v5.7H1z"/></symbol><symbol viewBox="0 0 20 20" id="patient"><title>patient</title><path d="M18.1 12.9c.2.1.3.2.4.4.1.2.2.4.2.6v4.8c0 .3-.1.6-.3.8-.2.2-.4.3-.7.3H2.3c-.3 0-.5-.1-.7-.3-.2-.2-.3-.5-.3-.8V14c0-.2.1-.5.2-.7.1-.2.3-.3.5-.4l6-2.8c-.7-.4-1.3-1-1.7-1.9-.5-.8-.7-1.7-.7-2.7 0-.7.1-1.4.3-2 .2-.6.5-1.2.9-1.6.4-.5.9-.9 1.5-1.2C8.8.5 9.4.3 10 .3s1.2.1 1.7.4c.5.3 1 .6 1.4 1.1.4.5.7 1 .9 1.6.2.6.3 1.3.3 2 0 1-.2 1.9-.6 2.7-.4.8-1 1.4-1.7 1.9l6.1 2.9zm0 0"/></symbol><symbol viewBox="0 0 20 20" id="pediatric"><title>pediatric</title><path d="M15.7 2.1c0 1.1-.9 2.1-2.1 2.1-1.1 0-2.1-.9-2.1-2.1 0-1.1.9-2.1 2.1-2.1 1.2 0 2.1.9 2.1 2.1zm0 0M15.2 4.6c-.1 0-.2-.1-.3-.1-.2-.1-.5-.2-.7-.2l-.6.5-.6-.5c-.3.1-.6.2-.9.3-.1 0-.1 0-.1.1-1.8 1-2.9 2.9-4.3 5.4-.2.3-.1.6.1.9-.7.5-2.6-.4-2.7-.4l-.4.3-.4-.3c-.3.1-1 .5-1.3.6 0 0 0 0-.1 0s-1.3.7-1.3 2.5c0 .3.2.5.6.5.3 0 .6-.2.6-.5 0-.6.2-1 .4-1.3v2.2c0 .1 0 .3.1.4 0 0 0 .1 0 .1v4.3c0 .3.3.6.7.6.4 0 .7-.3.7-.6v-3.6s.1 0 .1 0 .1 0 .1 0v3.6c0 .3.3.6.7.6.4 0 .7-.3.7-.6v-4.3c.1-.1.1-.3.1-.5v-2.4c.2.1.5.1.7.1.5 0 1.1-.2 1.8-.7.1-.1.2-.3.1-.5.2-.1.3-.2.4-.4.6-1.1 1.2-2.1 1.7-2.9v2.8c0 .2 0 .4.1.6 0 0 0 .1 0 .1v7.6c0 .7.5 1 1.1 1 .6 0 1.1-.5 1.1-1v-6.5s.1 0 .2 0c0 0 .1 0 .1 0V19c0 .5.4 1 1 1s1.1-.5 1.1-1v-7.6c.1-.2.2-.5.2-.8V7.7c.3.6.4 1.5.3 2.6-.1.4.3.8.8.9 0 0 .1 0 .1 0 .5 0 .9-.3.9-.7.6-3.5-1.1-4.9-2.9-5.9zm0 0M6 9c0 .7-.6 1.3-1.3 1.3-.7 0-1.3-.5-1.3-1.3 0-.7.6-1.3 1.3-1.3.7 0 1.3.6 1.3 1.3zm0 0"/></symbol><symbol viewBox="0 0 20 20" id="search"><title>search</title><path d="M19.6 17.4l-4.1-4.1c1-1.4 1.5-3 1.5-4.8 0-1.1-.2-2.2-.7-3.3-.4-1-1-1.9-1.8-2.7-.8-.8-1.7-1.4-2.7-1.8C10.7.2 9.6 0 8.5 0S6.2.2 5.2.7c-1 .4-1.9 1-2.7 1.8-.8.7-1.4 1.6-1.8 2.7-.5 1-.7 2.1-.7 3.3 0 1.1.2 2.2.7 3.3.4 1 1 1.9 1.8 2.7.8.8 1.7 1.4 2.7 1.8 1 .4 2.1.7 3.3.7 1.8 0 3.4-.5 4.8-1.5l4.1 4.1c.3.3.6.5 1.1.5.4 0 .8-.2 1.1-.5.3-.3.5-.7.5-1.1-.1-.4-.2-.8-.5-1.1zm-7.3-5.1c-1.1 1.1-2.3 1.6-3.8 1.6s-2.8-.5-3.8-1.6C3.6 11.2 3.1 10 3.1 8.5s.5-2.8 1.6-3.8c1-1.1 2.3-1.6 3.8-1.6s2.8.5 3.8 1.6c1.1 1.1 1.6 2.3 1.6 3.8s-.6 2.7-1.6 3.8zm0 0"/></symbol></svg>